<?xml version="1.0" encoding="UTF-8"?> <svg xmlns="http://www.w3.org/2000/svg" xmlns:xlink="http://www.w3.org/1999/xlink" width="1079.16035" height="381.43774" viewBox="0 0 1079.16035 381.43774"><defs><radialGradient id="radial-gradient" cx="454.44316" cy="143.80096" r="86.3526" gradientUnits="userSpaceOnUse"><stop offset="0" stop-color="#00aeef"></stop><stop offset="1" stop-color="#1c75bc"></stop></radialGradient><radialGradient id="radial-gradient-2" cx="614.07972" cy="143.80096" r="87.03866" xlink:href="#radial-gradient"></radialGradient><radialGradient id="radial-gradient-3" cx="771.36297" cy="143.50576" r="86.48082" xlink:href="#radial-gradient"></radialGradient><radialGradient id="radial-gradient-4" cx="892.74633" cy="143.80096" r="73.16846" xlink:href="#radial-gradient"></radialGradient><radialGradient id="radial-gradient-5" cx="1014.27507" cy="143.80096" r="85.45835" xlink:href="#radial-gradient"></radialGradient><radialGradient id="radial-gradient-6" cx="419.58293" cy="309.52742" r="45.49106" xlink:href="#radial-gradient"></radialGradient><radialGradient id="radial-gradient-7" cx="504.35121" cy="310.21121" r="45.16034" xlink:href="#radial-gradient"></radialGradient><radialGradient id="radial-gradient-8" cx="589.11806" cy="309.52742" r="45.49094" xlink:href="#radial-gradient"></radialGradient><radialGradient id="radial-gradient-9" cx="673.12635" cy="309.52742" r="44.37943" xlink:href="#radial-gradient"></radialGradient><radialGradient id="radial-gradient-10" cx="757.20941" cy="309.52742" r="44.67588" xlink:href="#radial-gradient"></radialGradient><radialGradient id="radial-gradient-11" cx="822.3803" cy="309.52742" r="37.77342" xlink:href="#radial-gradient"></radialGradient><radialGradient id="radial-gradient-12" cx="884.81659" cy="309.52742" r="44.93403" xlink:href="#radial-gradient"></radialGradient><radialGradient id="radial-gradient-13" cx="964.72441" cy="309.52742" r="43.30542" xlink:href="#radial-gradient"></radialGradient><radialGradient id="radial-gradient-14" cx="1043.79375" cy="309.37502" r="44.64593" xlink:href="#radial-gradient"></radialGradient><radialGradient id="radial-gradient-15" cx="174.90079" cy="190.71887" r="182.98084" xlink:href="#radial-gradient"></radialGradient></defs><g id="Ebene_2" data-name="Ebene 2"><g id="Layer_1" data-name="Layer 1"><g><path d="M381.76,209.86316q5.88243-1.46936,8.092-4.85586,2.20737-3.37987,2.20681-10.74216V93.33346q0-7.64865-2.20681-10.74-2.2057-3.0913-8.092-4.56177V45.66483h77.98019q15.891,0,24.57121,1.76457a55.08632,55.08632,0,0,1,16.037,5.88519,42.66457,42.66457,0,0,1,17.06739,18.24266q5.8841,11.77482,5.88519,27.07211,0,35.31448-27.95439,43.25833,31.78038,7.06157,31.77982,45.90517,0,15.891-4.70771,27.6603-4.70992,11.77149-13.536,17.95078a38.87282,38.87282,0,0,1-16.18511,6.76858q-9.41985,1.76456-27.07211,1.76456H381.76Zm55.3217-86.22034H456.797q11.76653,0,16.92035-4.85587,5.14608-4.85586,5.15-15.15357,0-10.29881-5.297-15.15578-5.297-4.85587-16.7733-4.85587H437.08167Zm0,80.334h21.77621q12.35857-.28857,17.65558-5.73815,5.297-5.44294,5.297-17.80263,0-12.35858-5.297-17.80262-5.297-5.443-17.65558-5.44406H437.08167Z" style="fill: url(#radial-gradient)"></path><path d="M677.19933,192.50057a53.30028,53.30028,0,0,0,1.91271,7.65086,25.05233,25.05233,0,0,0,2.20681,4.85587,8.88675,8.88675,0,0,0,2.7961,2.94315,19.53736,19.53736,0,0,0,4.26657,1.91271v32.07392h-66.798V209.86316q10.29716-.58707,10.29881-9.12354a6.91491,6.91491,0,0,0-.147-1.32453c-.10062-.48647-.345-1.61862-.73524-3.38318l-.29409-1.17638-1.47158-8.24126H591.27418l-1.76567,8.24126a27.98584,27.98584,0,0,0-.44117,3.23725c-.10169,1.17637-.147,2.16037-.147,2.94094q0,8.24237,10.887,8.82944v32.07392H539.77791V209.86316a11.68213,11.68213,0,0,0,7.20972-5.29811q2.20736-3.821,4.26657-13.535L579.79788,45.66483h67.38619ZM609.22385,93.92165l-12.65267,64.44414h26.778Z" style="fill: url(#radial-gradient-2)"></path><path d="M835.51246,110.10566H791.96115v-3.235l-.2941-5.29811q.29023-10.00029-5.485-15.59582-5.7796-5.58557-15.849-5.59-9.18766,0-15.11377,5.14775a16.27638,16.27638,0,0,0-5.9261,12.80082,14.30414,14.30414,0,0,0,5.33349,11.33035q5.33018,4.564,18.07461,9.56358l18.96573,7.06267a129.99674,129.99674,0,0,1,22.07031,10.44586,59.68387,59.68387,0,0,1,14.41833,12.06448,39.52674,39.52674,0,0,1,7.945,15.15578,74.49865,74.49865,0,0,1,2.355,19.71535q0,29.13186-17.95078,45.61107-17.95244,16.48141-49.43651,16.4781-35.31115,0-66.798-22.3644v-49.7306h44.7288v2.355a88.21433,88.21433,0,0,0,.59261,11.77039,26.729,26.729,0,0,0,2.07413,7.35677,16.96717,16.96717,0,0,0,7.55357,7.7968,24.87829,24.87829,0,0,0,12.00035,2.79721q9.47623,0,15.40344-5.73815,5.92389-5.74146,5.92611-14.86169a23.44265,23.44265,0,0,0-1.32343-8.239,16.26158,16.26158,0,0,0-5.00291-6.62043,49.554,49.554,0,0,0-10.00472-6.1804q-6.33186-3.088-16.33215-6.91452-7.06158-2.65016-11.4763-4.41362-4.41306-1.76787-7.50381-3.0913-3.08964-1.32342-5.2959-2.35275a41.8528,41.8528,0,0,1-4.56177-2.5009q-26.19315-13.83126-26.18983-45.61108,0-27.65919,17.65668-42.81608Q740.17078,41.254,772.24581,41.249a101.091,101.091,0,0,1,34.42887,6.03225,91.81931,91.81931,0,0,1,28.83778,16.331Z" style="fill: url(#radial-gradient-3)"></path><path d="M859.93552,209.86316q5.88243-1.46936,8.092-4.85586,2.20736-3.37987,2.20681-10.74216V93.33346q0-7.64865-2.20681-10.74-2.2057-3.0913-8.092-4.56177V45.66483h65.62162V78.03174q-5.89072,1.476-8.09311,4.70771-2.2057,3.24388-2.20681,10.594V194.26514q.29022,7.65859,2.35385,10.8881,2.05645,3.24389,7.94607,4.70992v32.07392H859.93552Z" style="fill: url(#radial-gradient-4)"></path><path d="M1079.16035,230.46079a145.562,145.562,0,0,1-31.33868,11.1822,142.29363,142.29363,0,0,1-33.10435,4.11952,101.56063,101.56063,0,0,1-28.10255-3.67728,61.28366,61.28366,0,0,1-21.62916-10.74216q-15.59913-12.06338-15.59582-37.07793V92.74528q.88394-50.907,65.91571-50.90588a150.012,150.012,0,0,1,30.89755,3.08909,198.85373,198.85373,0,0,1,32.9573,10.44476v55.3228h-42.37384v-2.355a78.26031,78.26031,0,0,0-.58818-11.62444,15.978,15.978,0,0,0-2.94315-6.62043,21.89517,21.89517,0,0,0-7.65086-6.62043,21.04813,21.04813,0,0,0-10.00472-2.5009,21.62137,21.62137,0,0,0-10.29881,2.5009,19.30813,19.30813,0,0,0-7.35677,6.62043,15.83856,15.83856,0,0,0-2.94315,6.76858,75.17447,75.17447,0,0,0-.58819,11.1822v67.68138q0,5.297.147,8.67908.14429,3.38651.44114,5.59221a11.58847,11.58847,0,0,0,1.03043,3.67728,29.52419,29.52419,0,0,0,1.91272,3.23724q6.17928,8.82945,17.65558,8.82945a22.67806,22.67806,0,0,0,10.29881-2.355,18.177,18.177,0,0,0,7.35677-6.47449,15.91644,15.91644,0,0,0,2.94315-6.62043,75.34189,75.34189,0,0,0,.58818-11.33035V163.36759h42.37384Z" style="fill: url(#radial-gradient-5)"></path><path d="M402.72014,343.63227a6.6534,6.6534,0,0,0,4.1781-2.50686q1.1387-1.74486,1.13927-5.54568V277.85236q-4.86474.30651-6.98861,2.96234-2.12842,2.65926-2.12672,8.887v10.32994H379.933V258.86428H459.2329v41.16738h-18.838V289.70172q0-6.22776-2.12672-8.887-2.12842-2.65583-6.98747-2.96234v57.72737q0,3.95379,1.13928,5.621a6.80693,6.80693,0,0,0,4.17695,2.43151v16.55828H402.72014Z" style="fill: url(#radial-gradient-6)"></path><path d="M500.249,258.86428V275.422a6.83248,6.83248,0,0,0-4.17695,2.43037q-1.14042,1.673-1.13927,5.621V327.985a25.41048,25.41048,0,0,0,.53082,6,9.62127,9.62127,0,0,0,1.89955,3.72261,11.02832,11.02832,0,0,0,8.50688,3.645q10.93839,0,10.93839-13.2158V283.777q0-3.94864-1.13927-5.77285a6.52078,6.52078,0,0,0-4.1781-2.5822V258.86428h30.83915V275.422a6.6632,6.6632,0,0,0-4.17809,2.50685q-1.13871,1.7483-1.13928,5.54454v44.35975q0,4.25345-.15182,7.29112a39.05534,39.05534,0,0,1-.60731,5.39386,26.10491,26.10491,0,0,1-1.13928,4.177,24.09484,24.09484,0,0,1-1.74772,3.64613,25.5885,25.5885,0,0,1-11.31739,9.798,40.98856,40.98856,0,0,1-17.3939,3.419q-15.649,0-24.30716-7.52058-8.65928-7.51885-8.65871-21.04V283.47338q-.15411-3.94863-1.21576-5.621a6.48611,6.48611,0,0,0-4.10161-2.43037V258.86428Z" style="fill: url(#radial-gradient-7)"></path><path d="M572.255,343.63227a6.65334,6.65334,0,0,0,4.17809-2.50686q1.13871-1.74486,1.13928-5.54568V277.85236q-4.86475.30651-6.98861,2.96234-2.12844,2.65926-2.12672,8.887v10.32994H549.46838V258.86428h79.29936v41.16738h-18.838V289.70172q0-6.22776-2.12672-8.887-2.12844-2.65583-6.98747-2.96234v57.72737q0,3.95379,1.13927,5.621a6.807,6.807,0,0,0,4.177,2.43151v16.55828H572.255Z" style="fill: url(#radial-gradient-8)"></path><path d="M707.30683,335.57973a33.84389,33.84389,0,0,1-1.89841,11.54571,18.53514,18.53514,0,0,1-6.00116,7.74774,31.62727,31.62727,0,0,1-11.16556,5.54568,57.2678,57.2678,0,0,1-15.11535,1.74658q-17.31857,0-26.43274-7.29226a19.45085,19.45085,0,0,1-6.00117-7.97491,31.42665,31.42665,0,0,1-1.74658-11.31854V283.47338a30.62851,30.62851,0,0,1,1.82307-11.5457,18.53962,18.53962,0,0,1,5.92468-7.59592,30.28711,30.28711,0,0,1,11.2409-5.69579,58.08457,58.08457,0,0,1,15.19184-1.74658q17.31855,0,26.28091,7.44237a20.31311,20.31311,0,0,1,6.07651,7.89958,29.65922,29.65922,0,0,1,1.82306,11.242ZM662.188,327.985a38.67166,38.67166,0,0,0,.3048,5.77285A8.15706,8.15706,0,0,0,664.011,337.251a11.3977,11.3977,0,0,0,3.87444,3.419,10.71369,10.71369,0,0,0,5.24089,1.2911,11.16574,11.16574,0,0,0,5.31737-1.2911,9.94988,9.94988,0,0,0,3.798-3.419,8.19967,8.19967,0,0,0,1.51827-3.41782,34.56749,34.56749,0,0,0,.30479-5.39271V291.0693a39.01182,39.01182,0,0,0-.30479-5.77285,8.22331,8.22331,0,0,0-1.51827-3.4943,11.30333,11.30333,0,0,0-3.94979-3.41782,10.8716,10.8716,0,0,0-5.16554-1.2911,11.16589,11.16589,0,0,0-5.31737,1.2911,9.97613,9.97613,0,0,0-3.798,3.41782,8.17288,8.17288,0,0,0-1.51827,3.41782,35.68757,35.68757,0,0,0-.3048,5.54568Z" style="fill: url(#radial-gradient-9)"></path><path d="M719.4587,343.63227a6.65036,6.65036,0,0,0,4.177-2.50686q1.1404-1.74486,1.13927-5.54568V283.47338q0-3.94863-1.13927-5.54454a7.03083,7.03083,0,0,0-4.177-2.355V258.86428h42.991a55.53749,55.53749,0,0,1,12.45781,1.44293,22.89244,22.89244,0,0,1,8.50688,4.02455,22.07944,22.07944,0,0,1,6.98861,9.57081,37.46683,37.46683,0,0,1,2.43037,13.97608q0,10.33222-3.798,15.951-3.79966,5.62331-12.30484,7.74775,7.44011,1.21746,10.71009,4.7854,3.2637,3.57193,3.11416,10.40643l-.15182,8.0514q-.15411,3.95206.83562,5.77285a8.19152,8.19152,0,0,0,3.72147,3.19065v16.40645H769.43833a24.335,24.335,0,0,1-1.51941-6.45664q-.30651-3.26542-.30365-9.49433V333.14936a53.24463,53.24463,0,0,0-.22832-6.07651,8.32962,8.32962,0,0,0-1.13927-3.18951,6.48331,6.48331,0,0,0-3.266-3.1153,17.82345,17.82345,0,0,0-6.30482-.83448h-8.65871v15.64617q.149,3.95379,1.21576,5.621a6.44717,6.44717,0,0,0,4.10161,2.43151v16.55828H719.4587Zm28.55946-41.62571h8.0514a31.56041,31.56041,0,0,0,6.38016-.45549,9.94065,9.94065,0,0,0,3.64613-1.67123q3.49317-2.73461,3.49431-10.17812,0-6.83565-3.03883-9.3425-3.03939-2.50686-11.08908-2.50686h-7.44409Z" style="fill: url(#radial-gradient-10)"></path><path d="M805.44188,343.63227a6.65036,6.65036,0,0,0,4.177-2.50686q1.1404-1.74486,1.13927-5.54568V283.47338q0-3.94863-1.13927-5.54454a7.03083,7.03083,0,0,0-4.177-2.355V258.86428h33.87683v16.70953a6.83575,6.83575,0,0,0-4.17809,2.43038q-1.13871,1.67466-1.13928,5.46919v52.10635q.149,3.95379,1.21576,5.621a6.44717,6.44717,0,0,0,4.10161,2.43151v16.55828H805.44188Z" style="fill: url(#radial-gradient-11)"></path><path d="M917.40232,334.66877a27.517,27.517,0,0,0,.98745,3.94979,12.96746,12.96746,0,0,0,1.13927,2.50685,4.60359,4.60359,0,0,0,1.44293,1.51942,10.1171,10.1171,0,0,0,2.20321.98744v16.55828H888.68989V343.63227q5.31681-.30307,5.31737-4.71006a3.6586,3.6586,0,0,0-.07534-.68379c-.05251-.25114-.17808-.83562-.38014-1.74658l-.15182-.60731-.76028-4.25458h-19.596l-.9121,4.25458a14.692,14.692,0,0,0-.22832,1.67124c-.05137.60731-.07534,1.1153-.07534,1.51827q0,4.25516,5.621,4.55823v16.55828H846.458V343.63227a6.0265,6.0265,0,0,0,3.72147-2.73517,26.30893,26.30893,0,0,0,2.20321-6.98746l14.73521-75.04536h34.78894ZM882.30973,283.777l-6.532,33.26952H889.602Z" style="fill: url(#radial-gradient-12)"></path><path d="M930.31561,343.63227a6.65036,6.65036,0,0,0,4.177-2.50686q1.1404-1.74486,1.13927-5.54568V283.47338q0-3.94863-1.13927-5.54454a7.03083,7.03083,0,0,0-4.177-2.355V258.86428h33.87683v16.70953a6.83575,6.83575,0,0,0-4.17809,2.43038q-1.13871,1.67466-1.13928,5.46919V340.2898h9.419q5.77056,0,7.97491-1.89955,2.20035-1.89727,2.2032-6.7603V314.31253h20.661v45.878h-68.8176Z" style="fill: url(#radial-gradient-13)"></path><path d="M1076.912,292.13209h-22.4841V290.462l-.15183-2.73517q.149-5.16268-2.8322-8.05139-2.98288-2.88357-8.18153-2.88586a11.473,11.473,0,0,0-7.80254,2.65754,8.40277,8.40277,0,0,0-3.05937,6.60848,7.38631,7.38631,0,0,0,2.75343,5.84933q2.75172,2.35617,9.33108,4.93723l9.79113,3.64614A67.15193,67.15193,0,0,1,1065.67,305.881a30.8376,30.8376,0,0,1,7.44409,6.22833,20.41351,20.41351,0,0,1,4.10161,7.82423,38.46255,38.46255,0,0,1,1.21462,10.17812q0,15.03944-9.266,23.54688-9.26887,8.5086-25.52178,8.50688-18.23124,0-34.48529-11.5457V324.94613h23.09141v1.21576a45.54078,45.54078,0,0,0,.30594,6.07651,13.79893,13.79893,0,0,0,1.07078,3.798,8.76216,8.76216,0,0,0,3.89955,4.02512,12.84346,12.84346,0,0,0,6.19523,1.44407,10.9509,10.9509,0,0,0,7.95208-2.96234,10.20915,10.20915,0,0,0,3.05938-7.6724,12.07573,12.07573,0,0,0-.6838-4.25344,8.39343,8.39343,0,0,0-2.5822-3.41782A25.5562,25.5562,0,0,0,1046.3,320.0089q-3.26714-1.59418-8.4304-3.56965-3.64726-1.36815-5.92467-2.27854-2.27913-.91268-3.87445-1.5959-1.59418-.68322-2.734-1.21461a21.55748,21.55748,0,0,1-2.355-1.2911q-13.5223-7.14045-13.52059-23.54689,0-14.27916,9.11533-22.104,9.11475-7.82109,25.6736-7.82366a52.18861,52.18861,0,0,1,17.774,3.11417,47.40513,47.40513,0,0,1,14.88818,8.431Z" style="fill: url(#radial-gradient-14)"></path><path d="M174.90084,30.89445q-4.3923,0-8.7318.2174c.9112,4.37109,2.05519,8.71939,3.19106,13.05957,5.53272,21.14046-.34412,38.52118-18.745,54.98847,8.063-20.61712.63177-38.3903-.38625-56.45989a76.71254,76.71254,0,0,1,.05047-9.59359C150.81154,26.819,153.4769,9.56461,166.8191,0c0,0-22.956,7.11654-24.97644,34.03086l.025.00439A174.88,174.88,0,0,0,61.47751,338.89846l-.04609-.01476c59.27592,51.78522,110.12363,41.77608,110.12363,41.77608-42.2915,0-68.13027-16.21406-80.31212-26.55117a121.68065,121.68065,0,0,1-32.18109-46.85742C44.87976,269.37333,54.53933,218.60785,81.752,193.52073c-8.01276,39.73179-2.00461,74.77448,27.76713,102.759,20.40581,19.18087,45.30259,27.86059,73.04352,28.87016-11.18019-5.25715-22.82854-9.71122-33.45844-15.91154-44.213-25.78893-58.26752-70.14386-34.15683-115.21963,13.1956-24.66975,30.98267-46.89988,46.9-70.09243,11.88832-17.32222,24.03081-34.47207,27.7667-55.804.82137-4.6904,1.2026-9.45789,1.96291-15.61961,22.25515,34.9782,27.70051,69.71184,6.806,105.57772-8.05265,13.82234-18.43714,26.266-27.02692,39.80247-5.91876,9.32764-12.24462,18.93449-15.48412,29.32229-9.07378,29.096,20.57263,59.4806,49.94775,52.15158,15.18555-3.78883,23.67813-16.34944,18.72885-31.17056-3.83395-11.48078-10.71962-21.94247-16.8916-34.12625,8.74666,5.32955,17.13488,10.44063,26.90106,16.39136-1.22633-6.68367-2.086-12.64264-3.44674-18.48494-2.00364-8.60208-4.85668-17.029-6.47568-25.69354-3.87533-20.7401,5.97961-34.39733,30.74282-41.8982-10.45474,15.47236-5.78894,30.04154.46207,44.29782,4.86021,11.08438,10.53141,21.81159,15.78054,32.72732,21.26964,44.23227,9.11409,89.79225-32.96194,115.1759-17.04505,10.283-36.85352,15.98554-54.3015,23.30943,9.64288-1.10849,21.43923-1.41165,32.687-4.0521a162.77237,162.77237,0,0,0,33.13731-11.86307c10.7579-5.181,20.5875-12.28932,30.76912-18.52066-7.928,17.6178-25.79085,33.79764-47.32526,45.13117A174.923,174.923,0,0,0,174.90084,30.89445Z" style="fill: url(#radial-gradient-15)"></path></g></g></g></svg> 